<svg xmlns="http://www.w3.org/2000/svg" width="400.469" height="489.846"><g paint-order="fill markers stroke"><path d="M200.235 0C147.445 0 94.536 20.285 56.72 57.12 18.904 93.954-2.9 147.23.312 199.924c3.143 51.58 28.802 99.117 58.556 141.366 39.502 56.09 87.304 106.323 141.367 148.556 54.063-42.233 101.865-92.467 141.366-148.556 29.754-42.25 55.413-89.787 58.556-141.366 3.211-52.693-18.592-105.97-56.408-142.804S253.025 0 200.235 0z" fill="#272425"/><path d="M200.234 104.634a10.083 10.083 0 0 0-10.083 10.083 10.083 10.083 0 0 0 6.012 9.217l-28.22 67.2-38.77-27.039a10.083 10.083 0 0 0 1.816-5.765 10.083 10.083 0 0 0-10.083-10.083 10.083 10.083 0 0 0-10.083 10.083 10.083 10.083 0 0 0 9.25 10.042l-3.707 44.717-62.57-48.678a10.083 10.083 0 0 0 2.136-6.184 10.083 10.083 0 0 0-10.083-10.083 10.083 10.083 0 0 0-10.083 10.083 10.083 10.083 0 0 0 10.083 10.083 10.083 10.083 0 0 0 2.461-.315l29.77 118.113s-.774-4.872 18.517-9.743c19.29-4.87 58.844-9.74 103.436-9.74 44.59 0 83.745 4.816 103.035 9.633 19.29 4.818 18.517 9.636 18.517 9.636l30.513-117.918a10.083 10.083 0 0 0 2.522.334 10.083 10.083 0 0 0 10.083-10.083 10.083 10.083 0 0 0-10.083-10.083 10.083 10.083 0 0 0-10.083 10.083 10.083 10.083 0 0 0 2.069 6.105l-64.007 48.757-2.478-44.696a10.083 10.083 0 0 0 9.524-10.063 10.083 10.083 0 0 0-10.083-10.083 10.083 10.083 0 0 0-10.083 10.083 10.083 10.083 0 0 0 1.783 5.705l-39.432 27.099-27.895-67.04a10.083 10.083 0 0 0 6.382-9.377 10.083 10.083 0 0 0-10.082-10.083zm1.357 175.647c-61.694 0-108.308 10.432-108.308 10.432s36.731 10.209 108.309 10.209c71.577 0 108.306-10.432 108.306-10.432s-46.612-10.21-108.306-10.21z" fill="#967a39"/></g></svg>